<svg width="141" height="32" viewBox="0 0 141 32" fill="none" xmlns="http://www.w3.org/2000/svg">
<path d="M41.2912 23V9.90909H46.3026C47.2486 9.90909 48.0348 10.0582 48.6612 10.3565C49.2919 10.6506 49.7628 11.0533 50.0739 11.5646C50.3892 12.076 50.5469 12.6555 50.5469 13.3033C50.5469 13.8359 50.4446 14.2919 50.2401 14.6712C50.0355 15.0462 49.7607 15.3509 49.4155 15.5852C49.0703 15.8196 48.6847 15.9879 48.2585 16.0902V16.218C48.723 16.2436 49.1683 16.3864 49.5945 16.6463C50.0249 16.902 50.3764 17.2642 50.6491 17.733C50.9219 18.2017 51.0582 18.7685 51.0582 19.4332C51.0582 20.1108 50.8942 20.7202 50.5661 21.2614C50.2379 21.7983 49.7436 22.2223 49.0831 22.5334C48.4226 22.8445 47.5916 23 46.5902 23H41.2912ZM43.6626 21.0185H46.2131C47.0739 21.0185 47.6939 20.8544 48.0732 20.5263C48.4567 20.1939 48.6484 19.7678 48.6484 19.2479C48.6484 18.8601 48.5526 18.5107 48.3608 18.1996C48.169 17.8842 47.8963 17.6371 47.5426 17.4581C47.1889 17.2749 46.767 17.1832 46.277 17.1832H43.6626V21.0185ZM43.6626 15.4766H46.0085C46.4176 15.4766 46.7862 15.402 47.1143 15.2528C47.4425 15.0994 47.7003 14.8842 47.8878 14.6072C48.0795 14.326 48.1754 13.9936 48.1754 13.6101C48.1754 13.103 47.9964 12.6854 47.6385 12.3572C47.2848 12.0291 46.7585 11.8651 46.0597 11.8651H43.6626V15.4766ZM55.8443 23.1982C55.2221 23.1982 54.6618 23.0874 54.1632 22.8658C53.6689 22.6399 53.2768 22.3075 52.987 21.8686C52.7015 21.4297 52.5588 20.8885 52.5588 20.245C52.5588 19.6911 52.661 19.233 52.8656 18.8707C53.0701 18.5085 53.3493 18.2188 53.7029 18.0014C54.0566 17.7841 54.4551 17.62 54.8983 17.5092C55.3457 17.3942 55.8081 17.3111 56.2853 17.2599C56.8606 17.2003 57.3272 17.147 57.6852 17.1001C58.0431 17.049 58.3031 16.9723 58.465 16.87C58.6312 16.7635 58.7143 16.5994 58.7143 16.3778V16.3395C58.7143 15.858 58.5716 15.4851 58.286 15.2209C58.0005 14.9567 57.5893 14.8246 57.0524 14.8246C56.4856 14.8246 56.036 14.9482 55.7037 15.1953C55.3755 15.4425 55.1539 15.7344 55.0389 16.071L52.8784 15.7642C53.0488 15.1676 53.3301 14.669 53.7221 14.2685C54.1142 13.8636 54.5936 13.5611 55.1603 13.3608C55.7271 13.1562 56.3535 13.054 57.0396 13.054C57.5126 13.054 57.9835 13.1094 58.4522 13.2202C58.921 13.331 59.3493 13.5142 59.737 13.7699C60.1248 14.0213 60.4359 14.3643 60.6703 14.799C60.9089 15.2337 61.0282 15.777 61.0282 16.429V23H58.8038V21.6513H58.7271C58.5865 21.924 58.3883 22.1797 58.1326 22.4183C57.8812 22.6527 57.5637 22.8423 57.1802 22.9872C56.801 23.1278 56.3556 23.1982 55.8443 23.1982ZM56.4451 21.4979C56.9096 21.4979 57.3123 21.4062 57.6532 21.223C57.9941 21.0355 58.2562 20.7884 58.4395 20.4815C58.627 20.1747 58.7207 19.8402 58.7207 19.478V18.321C58.6483 18.3807 58.5247 18.4361 58.35 18.4872C58.1795 18.5384 57.9877 18.5831 57.7747 18.6214C57.5616 18.6598 57.3507 18.6939 57.1419 18.7237C56.9331 18.7536 56.752 18.7791 56.5985 18.8004C56.2534 18.8473 55.9444 18.924 55.6717 19.0305C55.399 19.1371 55.1838 19.2862 55.0261 19.478C54.8684 19.6655 54.7896 19.9084 54.7896 20.2067C54.7896 20.6328 54.9451 20.9545 55.2562 21.1719C55.5673 21.3892 55.9636 21.4979 56.4451 21.4979ZM65.6689 17.2472V23H63.3549V13.1818H65.5666V14.8501H65.6816C65.9075 14.3004 66.2676 13.8636 66.7619 13.5398C67.2605 13.2159 67.8762 13.054 68.6092 13.054C69.2868 13.054 69.877 13.1989 70.3798 13.4886C70.8869 13.7784 71.2789 14.1982 71.5559 14.7479C71.8372 15.2976 71.9757 15.9645 71.9714 16.7486V23H69.6575V17.1065C69.6575 16.4503 69.487 15.9368 69.1461 15.5661C68.8095 15.1953 68.3429 15.0099 67.7463 15.0099C67.3414 15.0099 66.9814 15.0994 66.666 15.2784C66.3549 15.4531 66.1099 15.7067 65.9309 16.0391C65.7562 16.3714 65.6689 16.7741 65.6689 17.2472ZM76.6376 17.2472V23H74.3237V13.1818H76.5353V14.8501H76.6504C76.8762 14.3004 77.2363 13.8636 77.7306 13.5398C78.2292 13.2159 78.845 13.054 79.5779 13.054C80.2555 13.054 80.8457 13.1989 81.3485 13.4886C81.8556 13.7784 82.2477 14.1982 82.5247 14.7479C82.8059 15.2976 82.9444 15.9645 82.9402 16.7486V23H80.6262V17.1065C80.6262 16.4503 80.4558 15.9368 80.1149 15.5661C79.7782 15.1953 79.3116 15.0099 78.715 15.0099C78.3102 15.0099 77.9501 15.0994 77.6348 15.2784C77.3237 15.4531 77.0787 15.7067 76.8997 16.0391C76.725 16.3714 76.6376 16.7741 76.6376 17.2472ZM89.639 23.1918C88.6547 23.1918 87.8045 22.9872 87.0886 22.5781C86.377 22.1648 85.8294 21.581 85.4458 20.8267C85.0623 20.0682 84.8706 19.1754 84.8706 18.1484C84.8706 17.1385 85.0623 16.2521 85.4458 15.4893C85.8336 14.7223 86.3748 14.1257 87.0694 13.6996C87.764 13.2692 88.5801 13.054 89.5176 13.054C90.1227 13.054 90.6937 13.152 91.2306 13.348C91.7718 13.5398 92.2491 13.8381 92.6625 14.2429C93.0801 14.6477 93.4082 15.1634 93.6468 15.7898C93.8855 16.4119 94.0048 17.1534 94.0048 18.0142V18.7237H85.9572V17.1641H91.7868C91.7825 16.7209 91.6866 16.3267 91.4991 15.9815C91.3116 15.6321 91.0495 15.3572 90.7129 15.157C90.3805 14.9567 89.9927 14.8565 89.5495 14.8565C89.0765 14.8565 88.661 14.9716 88.3031 15.2017C87.9451 15.4276 87.666 15.7259 87.4657 16.0966C87.2697 16.4631 87.1696 16.8658 87.1653 17.3047V18.6662C87.1653 19.2372 87.2697 19.7273 87.4785 20.1364C87.6873 20.5412 87.9792 20.8523 88.3542 21.0696C88.7292 21.2827 89.1681 21.3892 89.671 21.3892C90.0076 21.3892 90.3123 21.3423 90.5851 21.2486C90.8578 21.1506 91.0943 21.0078 91.2946 20.8203C91.4949 20.6328 91.6461 20.4006 91.7484 20.1236L93.9089 20.3665C93.7725 20.9375 93.5126 21.4361 93.1291 21.8622C92.7498 22.2841 92.264 22.6122 91.6717 22.8466C91.0794 23.0767 90.4018 23.1918 89.639 23.1918ZM95.9624 23V13.1818H98.206V14.8182H98.3082C98.4872 14.2514 98.794 13.8146 99.2287 13.5078C99.6676 13.1967 100.168 13.0412 100.731 13.0412C100.859 13.0412 101.001 13.0476 101.159 13.0604C101.321 13.0689 101.455 13.0838 101.562 13.1051V15.2337C101.464 15.1996 101.308 15.1697 101.095 15.1442C100.886 15.1143 100.684 15.0994 100.488 15.0994C100.066 15.0994 99.6868 15.1911 99.3501 15.3743C99.0178 15.5533 98.7557 15.8026 98.5639 16.1222C98.3722 16.4418 98.2763 16.8104 98.2763 17.228V23H95.9624ZM108.599 13.1818V14.9716H102.795V13.1818H108.599ZM104.246 23V12.255C104.246 11.5945 104.383 11.0447 104.656 10.6058C104.933 10.1669 105.303 9.83878 105.768 9.62145C106.232 9.40412 106.748 9.29545 107.315 9.29545C107.715 9.29545 108.071 9.32741 108.382 9.39134C108.693 9.45526 108.923 9.51278 109.072 9.56392L108.612 11.3537C108.514 11.3239 108.391 11.294 108.241 11.2642C108.092 11.2301 107.926 11.2131 107.743 11.2131C107.312 11.2131 107.008 11.3175 106.829 11.5263C106.654 11.7308 106.567 12.0249 106.567 12.4084V23H104.246ZM112.903 23.1982C112.281 23.1982 111.72 23.0874 111.222 22.8658C110.727 22.6399 110.335 22.3075 110.046 21.8686C109.76 21.4297 109.617 20.8885 109.617 20.245C109.617 19.6911 109.72 19.233 109.924 18.8707C110.129 18.5085 110.408 18.2188 110.762 18.0014C111.115 17.7841 111.514 17.62 111.957 17.5092C112.404 17.3942 112.867 17.3111 113.344 17.2599C113.919 17.2003 114.386 17.147 114.744 17.1001C115.102 17.049 115.362 16.9723 115.524 16.87C115.69 16.7635 115.773 16.5994 115.773 16.3778V16.3395C115.773 15.858 115.63 15.4851 115.345 15.2209C115.059 14.9567 114.648 14.8246 114.111 14.8246C113.544 14.8246 113.095 14.9482 112.762 15.1953C112.434 15.4425 112.213 15.7344 112.097 16.071L109.937 15.7642C110.107 15.1676 110.389 14.669 110.781 14.2685C111.173 13.8636 111.652 13.5611 112.219 13.3608C112.786 13.1562 113.412 13.054 114.098 13.054C114.571 13.054 115.042 13.1094 115.511 13.2202C115.98 13.331 116.408 13.5142 116.796 13.7699C117.183 14.0213 117.494 14.3643 117.729 14.799C117.968 15.2337 118.087 15.777 118.087 16.429V23H115.862V21.6513H115.786C115.645 21.924 115.447 22.1797 115.191 22.4183C114.94 22.6527 114.622 22.8423 114.239 22.9872C113.86 23.1278 113.414 23.1982 112.903 23.1982ZM113.504 21.4979C113.968 21.4979 114.371 21.4062 114.712 21.223C115.053 21.0355 115.315 20.7884 115.498 20.4815C115.686 20.1747 115.779 19.8402 115.779 19.478V18.321C115.707 18.3807 115.583 18.4361 115.409 18.4872C115.238 18.5384 115.046 18.5831 114.833 18.6214C114.62 18.6598 114.409 18.6939 114.2 18.7237C113.992 18.7536 113.811 18.7791 113.657 18.8004C113.312 18.8473 113.003 18.924 112.73 19.0305C112.458 19.1371 112.242 19.2862 112.085 19.478C111.927 19.6655 111.848 19.9084 111.848 20.2067C111.848 20.6328 112.004 20.9545 112.315 21.1719C112.626 21.3892 113.022 21.4979 113.504 21.4979ZM122.727 17.2472V23H120.414V13.1818H122.625V14.8501H122.74C122.966 14.3004 123.326 13.8636 123.82 13.5398C124.319 13.2159 124.935 13.054 125.668 13.054C126.345 13.054 126.936 13.1989 127.438 13.4886C127.945 13.7784 128.338 14.1982 128.615 14.7479C128.896 15.2976 129.034 15.9645 129.03 16.7486V23H126.716V17.1065C126.716 16.4503 126.546 15.9368 126.205 15.5661C125.868 15.1953 125.401 15.0099 124.805 15.0099C124.4 15.0099 124.04 15.0994 123.725 15.2784C123.414 15.4531 123.169 15.7067 122.99 16.0391C122.815 16.3714 122.727 16.7741 122.727 17.2472ZM139.142 15.777L137.033 16.0071C136.973 15.794 136.869 15.5938 136.72 15.4062C136.575 15.2188 136.379 15.0675 136.132 14.9524C135.884 14.8374 135.582 14.7798 135.224 14.7798C134.742 14.7798 134.338 14.8842 134.009 15.093C133.686 15.3018 133.526 15.5724 133.53 15.9048C133.526 16.1903 133.63 16.4226 133.843 16.6016C134.061 16.7805 134.419 16.9276 134.917 17.0426L136.592 17.4006C137.521 17.6009 138.211 17.9183 138.663 18.353C139.119 18.7876 139.349 19.3565 139.353 20.0597C139.349 20.6776 139.168 21.223 138.81 21.696C138.456 22.1648 137.964 22.5312 137.333 22.7955C136.703 23.0597 135.978 23.1918 135.16 23.1918C133.958 23.1918 132.991 22.9403 132.258 22.4375C131.525 21.9304 131.088 21.2251 130.948 20.3217L133.204 20.1044C133.306 20.5476 133.524 20.8821 133.856 21.108C134.188 21.3338 134.621 21.4467 135.154 21.4467C135.703 21.4467 136.144 21.3338 136.477 21.108C136.813 20.8821 136.982 20.603 136.982 20.2706C136.982 19.9893 136.873 19.7571 136.656 19.5739C136.443 19.3906 136.11 19.25 135.659 19.152L133.984 18.8004C133.042 18.6044 132.345 18.2741 131.894 17.8097C131.442 17.3409 131.218 16.7486 131.222 16.0327C131.218 15.4276 131.382 14.9034 131.715 14.4602C132.051 14.0128 132.518 13.6676 133.115 13.4247C133.715 13.1776 134.408 13.054 135.192 13.054C136.343 13.054 137.248 13.299 137.909 13.7891C138.573 14.2791 138.985 14.9418 139.142 15.777Z" fill="black"/>
<path d="M12 4C5.382 4 0 9.382 0 16C0 22.618 5.382 28 12 28C13.404 28 14.746 27.7448 16 27.3008C11.346 25.6488 8 21.214 8 16C8 10.786 11.346 6.35122 16 4.69922C14.746 4.25522 13.404 4 12 4ZM16 4.69922C16.998 5.05322 17.9389 5.52909 18.7969 6.12109C19.1949 6.07109 19.588 6 20 6C25.514 6 30 10.486 30 16C30 21.514 25.514 26 20 26C19.588 26 19.1949 25.9289 18.7969 25.8789C17.9389 26.4709 16.998 26.9468 16 27.3008C17.254 27.7448 18.596 28 20 28C26.618 28 32 22.618 32 16C32 9.382 26.618 4 20 4C18.596 4 17.254 4.25522 16 4.69922ZM18.7969 25.8789C21.9349 23.7129 24 20.094 24 16C24 11.906 21.9349 8.28709 18.7969 6.12109C13.8549 6.72309 10 10.898 10 16C10 21.102 13.8549 25.2769 18.7969 25.8789Z" fill="black"/>
</svg>
