<svg xmlns="http://www.w3.org/2000/svg" xmlns:xlink="http://www.w3.org/1999/xlink" width="1154.88" height="166.924" viewBox="0 0 1154.88 166.924">
  <defs>
    <clipPath id="clip-path">
      <path id="Path_1" data-name="Path 1" d="M103.176,0,42.468,68.15H81.635v42.691l62.274-67.5-38.775-3Z" fill="#635bff"/>
    </clipPath>
    <clipPath id="clip-path-2">
      <path id="Path_2" data-name="Path 2" d="M93.189,140.924a85.577,85.577,0,0,1-75.1-44.658L0,116.575a111.421,111.421,0,0,0,186.928-.836l-18.164-20.39a85.569,85.569,0,0,1-75.575,45.575" fill="#635bff"/>
    </clipPath>
  </defs>
  <g id="Group_8" data-name="Group 8" transform="translate(-390 -457.538)">
    <g id="Group_7" data-name="Group 7" transform="translate(390 457.538)">
      <g id="Group_2" data-name="Group 2">
        <g id="Group_1" data-name="Group 1" clip-path="url(#clip-path)">
          <rect id="Rectangle_1" data-name="Rectangle 1" width="101.441" height="110.841" transform="translate(42.468 0)" fill="#635bff"/>
        </g>
      </g>
      <g id="Group_4" data-name="Group 4">
        <g id="Group_3" data-name="Group 3" clip-path="url(#clip-path-2)">
          <rect id="Rectangle_2" data-name="Rectangle 2" width="186.928" height="71.575" transform="translate(0 95.349)" fill="#635bff"/>
        </g>
      </g>
    </g>
    <path id="Path_4" data-name="Path 4" d="M95.58-68.04c10.62-4.5,16.38-13.14,16.38-26.1,0-20.34-14.76-31.86-41.58-31.86H13.68V0h56.7c31.68,0,49.32-13.32,49.32-36.54C119.7-52.56,111.24-63.36,95.58-68.04ZM85.14-90.9c0,9.54-5.04,14.76-14.94,14.76H39.6v-28.62H70.38C80.1-104.76,85.14-100.08,85.14-90.9ZM70.38-21.24H39.6V-55.62H70.56c14.58,0,22.32,5.94,22.32,16.92C92.88-27.36,84.96-21.24,70.38-21.24ZM168.84-92.7c-23.76,0-42.3,12.6-37.62,33.3H155.7c-1.62-8.1,3.78-12.6,12.96-12.6,12.78,0,17.1,8.64,17.28,20.52a96.615,96.615,0,0,0-19.62-1.98c-25.38,0-41.4,10.98-41.4,29.16,0,15.48,11.52,27,31.14,27,14.76,0,25.74-6.48,32.4-18.18V0h21.96V-50.94C210.42-76.32,196.38-92.7,168.84-92.7Zm-7.2,76.86c-7.56,0-12.24-3.24-12.24-9.54,0-6.84,5.76-11.34,19.26-11.34a64.237,64.237,0,0,1,18,2.7C182.52-23.04,173.16-15.84,161.64-15.84ZM274.86-92.7c-13.68,0-24.3,7.02-29.52,18.72V-90h-24.3V0h24.3V-44.28c0-16.74,8.46-28.08,20.16-28.08,14.04,0,14.04,12.78,14.04,21.24V0h24.48V-51.3C304.02-63.72,304.02-92.7,274.86-92.7Zm93.6,0c-13.68,0-24.3,7.02-29.52,18.72V-90h-24.3V0h24.3V-44.28c0-16.74,8.46-28.08,20.16-28.08,14.04,0,14.04,12.78,14.04,21.24V0h24.48V-51.3C397.62-63.72,397.62-92.7,368.46-92.7ZM470.7-29.16c-2.88,7.02-9.54,10.8-18.54,10.8-12.96,0-20.34-7.74-22.14-20.7H493.2c9.54-29.16-8.64-53.64-41.4-53.64-28.62,0-47.52,19.08-47.52,47.7S422.82,2.7,451.8,2.7c23.4,0,40.14-12.42,45.54-31.86Zm-19.08-43.2c12.78,0,19.08,7.2,18,18H430.38C432.72-66.06,440.1-72.36,451.62-72.36ZM554.76-92.7c-11.7,0-20.52,6.66-25.2,18V-90h-24.3V0h24.3V-44.28c0-16.56,6.48-27.18,15.3-27.18,5.94,0,9.72,4.5,9.72,11.52,0,4.86-1.8,10.08-5.22,15.84h25.38a47.315,47.315,0,0,0,4.86-20.7C579.6-81.54,569.88-92.7,554.76-92.7Zm99.18-5.94c4.14-17.82-3.96-30.06-24.84-30.06-19.8,0-31.14,11.16-31.14,30.06V-90h-18v20.88h18V0h24.48V-69.12h31.32V-90H622.44v-8.64c0-6.48,1.98-10.26,6.3-10.26s5.94,3.78,3.96,10.26Zm41.94,5.94c-23.76,0-42.3,12.6-37.62,33.3h24.48C681.12-67.5,686.52-72,695.7-72c12.78,0,17.1,8.64,17.28,20.52a96.615,96.615,0,0,0-19.62-1.98c-25.38,0-41.4,10.98-41.4,29.16,0,15.48,11.52,27,31.14,27,14.76,0,25.74-6.48,32.4-18.18V0h21.96V-50.94C737.46-76.32,723.42-92.7,695.88-92.7Zm-7.2,76.86c-7.56,0-12.24-3.24-12.24-9.54,0-6.84,5.76-11.34,19.26-11.34a64.237,64.237,0,0,1,18,2.7C709.56-23.04,700.2-15.84,688.68-15.84ZM801.9-92.7c-13.68,0-24.3,7.02-29.52,18.72V-90h-24.3V0h24.3V-44.28c0-16.74,8.46-28.08,20.16-28.08,14.04,0,14.04,12.78,14.04,21.24V0h24.48V-51.3C831.06-63.72,831.06-92.7,801.9-92.7ZM879.48,2.7c24.3,0,41.4-10.98,41.4-29.7,0-34.38-57.06-21.42-57.06-37.26,0-5.04,5.4-9.18,14.58-9.18,10.98,0,17.82,5.94,15.66,14.76h23.76c3.6-21.24-14.76-34.02-39.42-34.02-22.86,0-39.78,11.16-39.78,29.7,0,34.2,57.06,22.14,57.06,37.44,0,5.4-6.66,9-16.2,9-11.88,0-18.9-5.58-18.36-14.58H837.54C836.82-10.26,853.38,2.7,879.48,2.7Z" transform="translate(624 603)" fill="#2e2e2e"/>
  </g>
</svg>
