<svg xmlns="http://www.w3.org/2000/svg" xmlns:xlink="http://www.w3.org/1999/xlink" width="500" height="500" viewBox="0 0 500 500">
<path fill-rule="evenodd" clip-rule="evenodd" fill="#FFFFFF" d="M263.262,106.211c2.6,1.552,3.247,7.194,1.075,9.141  c-2.077,0.105-3.962,0.019-5.377-0.538c0.499-1.652,3.367-0.935,4.302-2.151C263.262,110.513,263.262,108.362,263.262,106.211z" id="path-0" style="position: relative;"/>
<path fill-rule="evenodd" clip-rule="evenodd" d="M242.292,112.664c-24.772,11.32-49.586,30.53-44.088,67.208  c4.425,29.521,35.045,45.071,66.671,49.465c11.206,1.557,21.695,0.359,32.26,3.226c-5.541,2.524-13.982,2.148-19.894,4.301  c7.94,9.624,25.776,14.01,32.26,26.883c-15.354-13.322-43.042-14.309-61.832-24.195c3.468,9.984,13.34,16.395,16.667,24.733  c-23.058-8.307-36.991-25.737-52.154-41.938c-0.539,7.917,5.007,14.327,7.527,20.969c-12.178-8.075-20.802-24.362-26.346-40.863  c-3.635,6.581-3.838,16.593-5.914,24.732c-6.093-14.97-7.286-36.779-5.915-57.53c-6.233,3.625-7.932,16.441-13.979,22.044  c-0.708-23.868,10.329-40.541,22.044-53.767c-9.226-1.247-20.225,4.797-27.421,9.14c3.044-10.592,14.834-17.349,26.346-23.12  C203.605,116.396,221.733,110.002,242.292,112.664z" id="path-1" style="position: relative;"/>
<path fill-rule="evenodd" clip-rule="evenodd" d="M251.433,118.04c-3.764,5.386-10.131,7.672-14.517,12.367  c-4.299,4.603-6.01,11.333-11.829,14.517c-0.861-2.903,0.165-7.692-2.688-8.603c-7.226,3.886-11.634,10.59-13.979,19.356  c1.683,1.821,3.186-1.085,4.839-1.075c1.059,1.988,1.073,5.02,2.688,6.452c1.972,0,3.943,0,5.915,0  c-0.47,15.346,4.1,25.651,13.441,31.185c5.098-2.43,1.7-13.354,2.688-19.894c3.292-2.443,4.467-7.003,3.764-13.442  c2.128-1.457,5.184-1.984,6.99-3.764c12.825,6.71,25.207,13.864,33.335,25.271c-8.39-2.596-16.82-15.367-29.034-12.366  c-0.164,3.39,5.122,1.33,6.452,3.226c5.479,11.051,14.618,27.692,7.527,43.013c-1.206-13.669-1.804-27.947-12.366-32.26  c-2.406,2.976,0.818,6.777,1.612,10.753c1.74,8.713,0.233,18.816-2.688,25.271c-1.986-7.21,1.92-28.182-5.915-28.497  c-6.445-0.259-4.507,14.468-3.226,19.894c-0.851,2.522-1.923-3.237-4.301-2.688c0.1,2.273,2.451,4.41,1.075,6.452  c-15.401-6.464-24.114-19.616-31.185-34.411c-2.72,11.189,7.318,18.814,11.291,26.883c-10.354-9.163-21.475-20.718-21.507-37.637  c-0.04-20.929,18.585-35.865,33.335-44.089C238.772,120.821,245.137,117.288,251.433,118.04z" id="path-2" style="position: relative;"/>
<path fill-rule="evenodd" clip-rule="evenodd" fill="#FFFFFF" d="M293.908,118.04c4.188,2.803,7.726,6.254,9.141,11.829  C298.981,127.202,291.957,124.972,293.908,118.04z" id="path-3" style="position: relative;"/>
<path fill-rule="evenodd" clip-rule="evenodd" d="M196.053,222.885c8.302,6.394,10.14,19.252,18.818,25.271  c-0.873,4.504-0.866,9.887-2.151,13.979c-0.624,0.451-1.441,0.709-2.688,0.538c-1.307,4.301-2.412,11.496-1.076,16.668  c3.982,0.218,4.654-2.874,4.839-6.452c8.037-7.009,20.839-21.181,35.486-12.904c-14.3,0.475-27.609,4.544-26.883,18.28  c8.697-1.384,15.773-8.125,25.808-4.839c-8.458,4.806-20.912,5.613-23.658,16.13c10.764,3.754,26.719,2.315,30.11,13.442  c-6.49-4.084-15.528-5.62-25.808-5.915c-1.794,1.79-1.988,5.181-4.302,6.452c-7.068-1.893-15.876-2.045-20.969-5.914  c0.188-1.783,3.099-0.844,4.839-1.075c-8.462-11.61-19.338-20.808-20.431-39.787c2.083,2.396,3.752,5.209,6.452,6.989  c-1.611-10.332-5.327-21.041-4.302-32.26c2.631,0.595,2.493,3.959,3.226,6.452C195.617,234.278,194.197,226.944,196.053,222.885z" id="path-4" style="position: relative;"/>
<path fill-rule="evenodd" clip-rule="evenodd" d="M357.354,268.587c-5.271-1.182-9.542-3.362-14.518-4.839  c10.667,15.858,23.962,33.748,26.884,59.144c-5.729-3.913-8.629-16.097-15.593-20.97c3.354,37.382-9.446,65.093-30.109,81.726  c3.572-8.794,10.304-14.43,9.679-27.421c-10.894,7.566-20.994,15.926-40.325,15.055c10.261-5.694,21.705-9.216,30.646-16.668  c13.808-11.506,25.881-30.04,25.271-52.153c-1.018-36.893-31.514-49.514-58.605-61.832c-0.088-0.625,0.119-0.957,0.538-1.075  C318.56,241.789,342.784,251.79,357.354,268.587z" id="path-5" style="position: relative;"/>
<path fill-rule="evenodd" clip-rule="evenodd" d="M290.683,418.596c1.435,0.787-0.225,2.95-1.613,2.688  C288.935,419.716,290.082,419.43,290.683,418.596z" id="path-6" style="position: relative;"/>
<path fill-rule="evenodd" clip-rule="evenodd" d="M288.532,148.688c-1.27,2.895,1.907,6.128,2.15,9.678  c0.113,1.652-0.994,3.466-0.538,4.839c1.216,3.654,4.898,2.499,5.915,5.915c-20.971,2.587-35.734-10.071-44.627-23.12  c7.108,2.39,11.058,7.94,18.818,9.678c-0.055-3.888-2.631-5.255-2.15-9.678c4.376,3.51,5.226,10.546,11.291,12.366  c2.607-4.567,0.202-12.983-0.538-17.743c-4.62-3.803-11.977-4.87-13.979-11.291c4.589,0.608,6.07,4.325,11.291,4.302  c0.454-13.729-22.25-8.927-24.733-21.507c1.942,0.208,3.588,0.713,4.839,1.613c-1.217-2.91-6.132-6.768-9.14-9.678  c-19.139-1.943-32.725,5.588-46.239,5.914c8.295-14.645,25.321-20.56,46.777-22.044c-7.456-13.335-20.366-25.874-25.808-43.014  c2.08-0.76,3.247,2.328,4.301,3.764c9.199,12.525,19.143,27.703,31.185,37.637c-2.864-18.403-1.269-40.246,9.14-50.003  c-5.963,12.566-5.004,37.978,1.613,48.928c4.622-12.404,8.239-25.813,20.432-30.647c-2.364,6.079-10.596,11.849-11.829,20.431  c-1.381,9.611,1.087,17.83,6.452,23.12c2.416-6.366,0.692-16.871,4.302-22.044c1.541,9.928,2.191,20.748,7.527,26.883  c5.527-8.104,8.35-21.746,16.667-25.271c-3.437,11.511-9.583,18.92-8.064,31.185c1.288,10.409,9.24,22.229,15.055,27.958  c2.418,2.383,10.768,5.731,11.291,9.141c0.544,3.544-3.684,5.842-4.839,8.603c-2.573,6.144-0.596,12.258-2.151,18.281  c-4.569-4.033-2.41-14.795-5.914-19.894c-2.815-0.486-2.023,2.636-4.839,2.15c-6.089-6.995-11.997-14.169-18.818-20.431  c-1.349,0.802-1.888,2.414-2.688,3.764c7.73,9.104,11.504,20.583,17.743,30.647c3.326,5.366,7.73,10.178,11.291,15.592  c3.521,5.355,7.255,10.374,10.753,15.592c-4.582-3.48-7.902-8.502-11.828-13.441c-3.795-4.774-8.569-8.58-12.366-13.442  C300.052,165.451,298.229,153.378,288.532,148.688z M263.262,112.664c-0.935,1.216-3.803,0.499-4.302,2.151  c1.415,0.557,3.3,0.643,5.377,0.538c2.172-1.947,1.524-7.588-1.075-9.141C263.262,108.362,263.262,110.513,263.262,112.664z   M303.049,129.869c-1.415-5.575-4.953-9.026-9.141-11.829C291.957,124.972,298.981,127.202,303.049,129.869z" id="path-7" style="position: relative;"/>
<path fill-rule="evenodd" clip-rule="evenodd" d="M312.189,258.909c14.232,10.422,29.512,28.838,27.421,54.304  c-2.314,28.189-29.245,50.018-58.605,52.154c-15.459,1.125-28.979-0.753-40.863-4.302c-6.124-1.828-12.88-3.723-16.668-8.064  c6.263-1.981,16.122-0.366,20.432-4.302c-12.581-4.267-32.448-1.246-41.938-8.603c3.944-2.149,12.551,0.364,14.517-3.764  c-2.866-4.918-9.122-4.659-13.441-4.302c-15.306,1.269-32.027,16.142-33.873,31.723c-3.46,29.2,18.003,47.679,45.702,45.164  c10.133-0.92,18.401-5.49,27.958-8.064c-9.756,10.57-32.167,15.001-51.616,10.753c2.599,6.524,14.458,9.058,24.732,9.678  c18.012,1.088,35.729-5.48,49.465-8.603c-11.149,10.895-33.801,10.288-50.003,16.13c6.945,4.585,17.034,3.798,27.421,4.839  c37.516,3.763,64.923-10.672,80.65-31.185c-0.911-1.221-3.59,0.317-4.302,1.075c-0.023-1.731,5.679-4.951,8.065-4.301  c-4.836,11.356-15.681,20.358-26.346,27.421c-18.439,12.211-40.379,16.917-74.198,14.517c4.234,4.463,10.866,7.886,17.743,11.291  c6.771,3.354,14.354,5.252,20.969,8.603c-35.785-1.134-51.34-22.498-76.886-33.872c0.805,8.964,8.459,14.545,14.517,19.894  c6.274,5.539,13.911,9.786,19.356,15.592c-34.405-16.136-60.042-41.038-61.832-89.79c-2.536,0.167-3.075,5.15-4.839,4.301  c0.429-14.088,7.855-21.179,9.678-33.873c3.95-4.652,8.697-8.508,13.441-12.366c0.133-1.812-3.216-1.559-1.613-3.226  c4.411-2.399,10.726-2.896,15.592-4.839c-1.15-2.076-4.81-1.643-6.452-3.227c8.667-2.974,19.958,0.373,27.421,2.151  c0.696-1.789-2.86-3.938-3.226-6.452c8.894,2.576,13.495,9.445,20.969,13.441c0.184-3.769-2.597-4.572-2.688-8.065  c11.935,4.375,16.922,15.696,26.345,22.582c-1.464-5.705-5.625-8.712-6.989-14.517c13.027,6.149,21.377,16.977,33.873,23.657  c-1.246-6.821-7.19-13.598-10.754-19.894c11.049,1.498,18.476,11.274,27.959,16.13c1.102-6.898-6.645-12.291-6.989-17.743  c9.642,2.188,17.21,6.447,25.271,10.216c-0.869-5.073-11.175-8.146-12.367-12.904c6.142-1.207,12.552-2.145,18.281-3.764  c-2.071-2.051-7.505-0.739-9.678-2.688c7.03-6.77,17.252-10.349,18.817-22.582c-5.073,1.02-6.64,5.547-11.828,6.451  c2.384-6.421,6.481-13.918,4.839-22.581c-1.68-1.818-2.132,2.138-4.301,1.612C322.629,271.769,316.352,266.396,312.189,258.909z" id="path-8" style="position: relative;"/>
</svg>